<svg height="127.26" viewBox="0 0 349.60251 127.26" width="349.60251" xmlns="http://www.w3.org/2000/svg" xmlns:xlink="http://www.w3.org/1999/xlink"><clipPath id="a"><path d="m0 101.808h279.682v-101.808h-279.682z"/></clipPath><g clip-path="url(#a)" transform="matrix(1.25 0 0 -1.25 0 127.26)"><path d="m0 0v12.507 12.507c0 9.134-3.703 17.403-9.687 23.386-5.986 5.986-14.25 9.686-23.385 9.686h-12.507-12.507c-4.436 0-8.45-1.795-11.352-4.702-2.907-2.905-4.706-6.919-4.706-11.352v-21.014-21.018c0-4.433 1.799-8.446 4.706-11.352l32.366-32.37 32.37 32.37c2.906 2.906 4.702 6.919 4.702 11.352m-14.623-1.431h-10.879v22.446c0 6.667-5.424 12.088-12.088 12.088h-11.053v-34.534h-10.878v44.894h22.449c12.398 0 22.449-10.05 22.449-22.448z" fill="#00abd2" transform="translate(74.1436 43.7222)"/><g fill="#005078"><path d="m0 0h-15.714v-31.429h7.614v24.176h7.738c4.665 0 8.462-3.796 8.462-8.461v-15.715h7.614v15.715c0 8.678-7.035 15.714-15.714 15.714" transform="translate(118.796 73.7198)"/><path d="m0 0c0-8.678 7.036-15.714 15.715-15.714h15.714v31.428h-15.714c-8.679 0-15.715-7.035-15.715-15.714m24.176-8.461h-8.461c-4.665 0-8.462 3.796-8.462 8.461s3.797 8.462 8.462 8.462h8.461z" transform="translate(140.1905 58.0054)"/><path d="m0 0c-8.679 0-15.714-7.036-15.714-15.714 0-8.679 7.035-15.715 15.714-15.715h15.714v31.429zm8.462-24.176h-8.462c-4.665 0-8.462 3.797-8.462 8.462s3.797 8.461 8.462 8.461h8.462z" transform="translate(263.9678 73.7198)"/><path d="m0 0v6.315h-26.8v-7.252h15.183l-15.722-17.785v-6.391h27.725v7.253h-16.108z" transform="translate(207.253 67.4039)"/><path d="m0 0h-10.258l-8.106-8.109-5.813-5.809v13.918h-7.252v-31.429h7.252v7.253l4.544 4.543 9.375-11.796h10.258l-13.848 17.582z" transform="translate(247.5294 73.7198)"/></g></g></svg>